<mxfile host="65bd71144e">
    <diagram id="rck2uAXU8wZx-IurnwMN" name="Page-1">
        <mxGraphModel dx="285" dy="815" grid="1" gridSize="10" guides="1" tooltips="1" connect="1" arrows="1" fold="1" page="0" pageScale="1" pageWidth="850" pageHeight="1100" math="0" shadow="0">
            <root>
                <mxCell id="0"/>
                <mxCell id="1" parent="0"/>
                <mxCell id="odt7tYLPVK0pIeZ3tvVB-2" value="conversation" style="rounded=0;whiteSpace=wrap;html=1;fontFamily=Helvetica;fillColor=#60a917;fontColor=#ffffff;strokeColor=#2D7600;" parent="1" vertex="1">
                    <mxGeometry x="62.5" y="170" width="170" height="40" as="geometry"/>
                </mxCell>
                <mxCell id="odt7tYLPVK0pIeZ3tvVB-3" value="event:&lt;br&gt;githubCodeVault&lt;br&gt;&lt;br&gt;1 Feb 3020" style="ellipse;whiteSpace=wrap;html=1;fontFamily=Helvetica;fillColor=#e51400;fontColor=#ffffff;strokeColor=#B20000;" parent="1" vertex="1">
                    <mxGeometry x="85" y="50" width="125" height="80" as="geometry"/>
                </mxCell>
                <mxCell id="odt7tYLPVK0pIeZ3tvVB-5" value="" style="endArrow=classic;html=1;rounded=0;fontFamily=Helvetica;exitX=0.5;exitY=1;exitDx=0;exitDy=0;entryX=0.5;entryY=0;entryDx=0;entryDy=0;strokeColor=#FFFFFF;" parent="1" source="odt7tYLPVK0pIeZ3tvVB-3" target="odt7tYLPVK0pIeZ3tvVB-2" edge="1">
                    <mxGeometry width="50" height="50" relative="1" as="geometry">
                        <mxPoint x="295" y="190" as="sourcePoint"/>
                        <mxPoint x="345" y="140" as="targetPoint"/>
                    </mxGeometry>
                </mxCell>
                <mxCell id="odt7tYLPVK0pIeZ3tvVB-6" value="didConversation" style="rhombus;whiteSpace=wrap;html=1;fontFamily=Helvetica;fillColor=#76608a;fontColor=#ffffff;strokeColor=#432D57;" parent="1" vertex="1">
                    <mxGeometry x="38.5" y="260" width="218" height="100" as="geometry"/>
                </mxCell>
                <mxCell id="odt7tYLPVK0pIeZ3tvVB-7" value="" style="endArrow=classic;html=1;rounded=0;fontFamily=Helvetica;exitX=0.5;exitY=1;exitDx=0;exitDy=0;entryX=0.5;entryY=0;entryDx=0;entryDy=0;strokeColor=#FFFFFF;" parent="1" source="odt7tYLPVK0pIeZ3tvVB-2" target="odt7tYLPVK0pIeZ3tvVB-6" edge="1">
                    <mxGeometry width="50" height="50" relative="1" as="geometry">
                        <mxPoint x="160" y="260" as="sourcePoint"/>
                        <mxPoint x="210" y="210" as="targetPoint"/>
                    </mxGeometry>
                </mxCell>
                <mxCell id="odt7tYLPVK0pIeZ3tvVB-8" value="" style="endArrow=classic;html=1;rounded=0;fontFamily=Helvetica;exitX=1;exitY=0.5;exitDx=0;exitDy=0;strokeColor=#FFFFFF;" parent="1" source="odt7tYLPVK0pIeZ3tvVB-6" edge="1">
                    <mxGeometry width="50" height="50" relative="1" as="geometry">
                        <mxPoint x="260" y="410" as="sourcePoint"/>
                        <mxPoint x="340" y="310" as="targetPoint"/>
                    </mxGeometry>
                </mxCell>
                <mxCell id="odt7tYLPVK0pIeZ3tvVB-13" style="edgeStyle=orthogonalEdgeStyle;rounded=0;orthogonalLoop=1;jettySize=auto;html=1;exitX=0.5;exitY=1;exitDx=0;exitDy=0;entryX=0.5;entryY=0;entryDx=0;entryDy=0;fontFamily=Helvetica;strokeColor=#FFFFFF;" parent="1" source="odt7tYLPVK0pIeZ3tvVB-9" target="odt7tYLPVK0pIeZ3tvVB-12" edge="1">
                    <mxGeometry relative="1" as="geometry"/>
                </mxCell>
                <mxCell id="odt7tYLPVK0pIeZ3tvVB-9" value="alexandriaVisit" style="rounded=0;whiteSpace=wrap;html=1;fontFamily=Helvetica;fillColor=#60a917;fontColor=#ffffff;strokeColor=#2D7600;" parent="1" vertex="1">
                    <mxGeometry x="290" y="290" width="170" height="40" as="geometry"/>
                </mxCell>
                <mxCell id="odt7tYLPVK0pIeZ3tvVB-10" value="&lt;h1&gt;conversation&lt;/h1&gt;&lt;p&gt;Basically the spaceport dialog where you watch the GitHub Code Vault being opened after 1,000 years.&lt;/p&gt;" style="text;html=1;spacing=5;spacingTop=-20;whiteSpace=wrap;overflow=hidden;rounded=0;fontFamily=Helvetica;fillColor=#0050ef;fontColor=#ffffff;strokeColor=#001DBC;" parent="1" vertex="1">
                    <mxGeometry x="265" y="30" width="160" height="120" as="geometry"/>
                </mxCell>
                <mxCell id="odt7tYLPVK0pIeZ3tvVB-11" value="" style="endArrow=none;html=1;rounded=0;fontFamily=Helvetica;exitX=1;exitY=0.5;exitDx=0;exitDy=0;entryX=0;entryY=0.5;entryDx=0;entryDy=0;fillColor=#60a917;strokeColor=#FFFFFF;" parent="1" source="odt7tYLPVK0pIeZ3tvVB-2" target="odt7tYLPVK0pIeZ3tvVB-10" edge="1">
                    <mxGeometry width="50" height="50" relative="1" as="geometry">
                        <mxPoint x="220" y="300" as="sourcePoint"/>
                        <mxPoint x="270" y="250" as="targetPoint"/>
                        <Array as="points">
                            <mxPoint x="250" y="180"/>
                            <mxPoint x="250" y="110"/>
                        </Array>
                    </mxGeometry>
                </mxCell>
                <mxCell id="odt7tYLPVK0pIeZ3tvVB-18" style="edgeStyle=orthogonalEdgeStyle;rounded=0;orthogonalLoop=1;jettySize=auto;html=1;exitX=1;exitY=0.5;exitDx=0;exitDy=0;entryX=0;entryY=0.5;entryDx=0;entryDy=0;fontFamily=Helvetica;strokeColor=#FFFFFF;" parent="1" source="odt7tYLPVK0pIeZ3tvVB-12" target="odt7tYLPVK0pIeZ3tvVB-17" edge="1">
                    <mxGeometry relative="1" as="geometry"/>
                </mxCell>
                <mxCell id="odt7tYLPVK0pIeZ3tvVB-12" value="leest.player.hasGit" style="rhombus;whiteSpace=wrap;html=1;fontFamily=Helvetica;fillColor=#76608a;fontColor=#ffffff;strokeColor=#432D57;" parent="1" vertex="1">
                    <mxGeometry x="38.5" y="440" width="218" height="100" as="geometry"/>
                </mxCell>
                <mxCell id="odt7tYLPVK0pIeZ3tvVB-14" value="&lt;h1&gt;alexandriaVisit&lt;/h1&gt;&lt;div&gt;When visiting Alexandria, you can pick up a copy of Git from the library. You can defer the mission or you can outright decline it. Finishing the mission will give you the &quot;leest.player.hasGit&quot; condition.&lt;/div&gt;" style="text;html=1;spacing=5;spacingTop=-20;whiteSpace=wrap;overflow=hidden;rounded=0;fontFamily=Helvetica;fillColor=#0050ef;fontColor=#ffffff;strokeColor=#001DBC;" parent="1" vertex="1">
                    <mxGeometry x="330" y="160" width="320" height="110" as="geometry"/>
                </mxCell>
                <mxCell id="odt7tYLPVK0pIeZ3tvVB-16" value="" style="endArrow=none;html=1;rounded=0;fontFamily=Helvetica;entryX=0;entryY=0.5;entryDx=0;entryDy=0;exitX=0.471;exitY=0;exitDx=0;exitDy=0;exitPerimeter=0;strokeColor=#FFFFFF;" parent="1" source="odt7tYLPVK0pIeZ3tvVB-9" target="odt7tYLPVK0pIeZ3tvVB-14" edge="1">
                    <mxGeometry width="50" height="50" relative="1" as="geometry">
                        <mxPoint x="450" y="290" as="sourcePoint"/>
                        <mxPoint x="500" y="240" as="targetPoint"/>
                        <Array as="points">
                            <mxPoint x="360" y="280"/>
                            <mxPoint x="320" y="280"/>
                            <mxPoint x="320" y="240"/>
                        </Array>
                    </mxGeometry>
                </mxCell>
                <mxCell id="odt7tYLPVK0pIeZ3tvVB-17" value="buyDataChipsForPerson" style="rounded=0;whiteSpace=wrap;html=1;fontFamily=Helvetica;fillColor=#60a917;fontColor=#ffffff;strokeColor=#2D7600;" parent="1" vertex="1">
                    <mxGeometry x="340" y="470" width="170" height="40" as="geometry"/>
                </mxCell>
                <mxCell id="odt7tYLPVK0pIeZ3tvVB-19" value="Lemuria's Extra ES Stuff: GitHub Code Vault storyline. 0.10.16 (1 Jan 2023)&lt;br&gt;data/sidemissions/gh codevault.txt" style="text;html=1;strokeColor=default;fillColor=#050505;align=left;verticalAlign=middle;whiteSpace=wrap;rounded=0;fontFamily=Helvetica;fontColor=#ffffff;" parent="1" vertex="1">
                    <mxGeometry width="640" height="30" as="geometry"/>
                </mxCell>
                <mxCell id="odt7tYLPVK0pIeZ3tvVB-20" value="&lt;h1&gt;buyDataChipsForPerson&lt;/h1&gt;&lt;div&gt;Once you have Git, you can take a mission from an old man with a large collection of software. He wants you to get some datachips for him, so he can have more storage space for his collection.&lt;/div&gt;" style="text;html=1;spacing=5;spacingTop=-20;whiteSpace=wrap;overflow=hidden;rounded=0;fontFamily=Helvetica;fillColor=#0050ef;fontColor=#ffffff;strokeColor=#001DBC;" parent="1" vertex="1">
                    <mxGeometry x="450" y="340" width="300" height="120" as="geometry"/>
                </mxCell>
                <mxCell id="odt7tYLPVK0pIeZ3tvVB-21" value="" style="endArrow=none;html=1;rounded=0;fontFamily=Helvetica;exitX=0.5;exitY=0;exitDx=0;exitDy=0;entryX=0;entryY=0.5;entryDx=0;entryDy=0;strokeColor=#FFFFFF;" parent="1" source="odt7tYLPVK0pIeZ3tvVB-17" target="odt7tYLPVK0pIeZ3tvVB-20" edge="1">
                    <mxGeometry width="50" height="50" relative="1" as="geometry">
                        <mxPoint x="460" y="460" as="sourcePoint"/>
                        <mxPoint x="510" y="410" as="targetPoint"/>
                        <Array as="points">
                            <mxPoint x="425" y="420"/>
                        </Array>
                    </mxGeometry>
                </mxCell>
            </root>
        </mxGraphModel>
    </diagram>
</mxfile>
